<svg xmlns="http://www.w3.org/2000/svg" viewBox="0 0 425.4 162.1"><title>Bright Bright Great</title><path fill="currentColor" d="M245.3 73.7v.4c0 4.8-3.4 6.9-12 6.9h-17.6V66.8h17.6c8.6 0 12 2.1 12 6.9zm-12.1-33.1h-17.6v14h17.6c8.7 0 12-2.1 12-6.9v-.3c.1-4.8-3.3-6.8-12-6.8zm-122.6 0H93v14h17.6c8.7 0 12-2.1 12-6.9v-.3c0-4.8-3.3-6.8-12-6.8zm0 26.2H93v14.1h17.6c8.7 0 12-2.1 12-6.9v-.4c0-4.7-3.3-6.8-12-6.8zm296.3-16h18.3v66.7l-41 41.1h-30.5l-2.6-8.2c-11 7.5-25 11.7-40.4 11.7-27.4 0-46.3-9.3-57.7-22.6l-5 5c-7.6 8.2-20.7 14.2-41.2 14.2h-84.2v-11.4c-7.9 6.7-20.2 11.4-38.4 11.4H0V44.6L41.1 3.5h82.6c14.7 0 25.6 3.1 33.4 7.8l6.6-7.8h82.6c27 0 41.2 10.3 46.9 22.3l1.2-1.2 1.3-1.3C309.3 9 331.1 0 356.7 0 381 0 406 8.8 418.8 21.7l6.6 6.7zM164.8 80.5c0-9-8.4-17.4-23.8-19.9 13.7-2.7 22.2-11.2 22.2-20.1v-1.1c0-14.9-14.3-25.4-39.6-25.4H51.5v93.1h73.8c25.3 0 39.4-10.5 39.5-25.5v-1.1zm122.6 0c0-9-8.4-17.4-23.8-19.9 13.7-2.7 22.2-11.2 22.2-20.1v-1.1c0-14.9-14.3-25.4-39.6-25.4H174v93.1h73.8c25.3 0 39.4-10.5 39.5-25.5v-1.1h.1zm71.4-19.3v11.3h15.4v.6c0 4.5-6.4 9-18.7 9-13.8 0-21.8-8.5-21.8-20.1v-1.7c0-12.9 12-21 27.5-21 12.3 0 25.9 5.2 32 11.9L411.4 29c-10.1-10.2-31.6-18.6-54.7-18.6-38.2 0-65.6 21.7-65.6 49.5v1.5c0 27.1 21.3 49.1 60.7 49.1 20.4 0 36.2-7.9 45.3-20.1l5.3 16.6h12.5V61.2h-56.1z"/></svg>
