<svg id="64526c56-1202-412c-9706-03e205ecc3aa" data-name="Layer 1" xmlns="http://www.w3.org/2000/svg" viewBox="0 0 85 61"><title>bbg</title><g id="4dd45c59-a064-49c8-bf1a-5755d9da9c2f" data-name="Symbols"><g id="511348a6-ba33-4d6e-966b-82135cd2832d" data-name="Footer-Copy"><g id="f3269f8f-2798-406d-b649-624570f73752" data-name="Group-2-Copy-2"><g id="b9533f3b-f5bc-4215-b9db-c4e8cd88cf00" data-name="BBG-Logo"><path id="197531f2-9ad6-41cc-8444-86f9299267c4" data-name="Shape" d="M46,21H43v2h3c1.47,0,2-.29,2-1V22C48,21.3,47.44,21,46,21Z" style="fill:currentColor"/><path id="8218670f-8e99-4916-89cf-4a0cabd175e4" data-name="Shape" d="M73,15.54l-1.26-1.31c-1.86-1.93-5.47-3.23-9-3.23a12.05,12.05,0,0,0-8.65,3.29c-.85-1.26-2.68-2.8-6.59-2.8H35.89l-.79,1a9.65,9.65,0,0,0-4.49-.95H19l-6,6.12V34.51H25.18a9.26,9.26,0,0,0,4.74-1.1v1.1H42.1c3.38,0,5.18-1.18,6.08-2.17l.28-.28c1.39,1.43,3.83,2.94,8,2.94a10.32,10.32,0,0,0,5.26-1.35l.27.86h4.84l6-6.13V18.17H70.88ZM36.29,23.08c0,2.11-1.95,3.59-5.44,3.59H20.65V13.52h10c3.5,0,5.47,1.48,5.47,3.6v.15c0,1.27-1.18,2.47-3.07,2.85,2.12.35,3.28,1.54,3.28,2.8Zm16.92,0c0,2.11-2,3.59-5.44,3.59H37.58V13.52h10C51,13.52,53,15,53,17.12v.15c0,1.27-1.18,2.47-3.07,2.85,2.12.35,3.28,1.54,3.28,2.8Zm17.6,3.59H69.09l-.73-2.35a7.51,7.51,0,0,1-6.26,2.85c-5.44,0-8.37-3.1-8.37-6.93V20c0-3.93,3.78-7,9.05-7,3.19,0,6.16,1.19,7.55,2.63l-2.51,3.12A6.46,6.46,0,0,0,63.4,17.1c-2.15,0-3.81,1.15-3.81,3v.24a2.75,2.75,0,0,0,3,2.84c1.69,0,2.58-.63,2.58-1.26V21.8H63.07V20.2h7.74Z" style="fill:currentColor"/><path id="b35904aa-d259-4524-a0a7-38ab19c01dde" data-name="Shape" d="M46,17H43v2h3c1.47,0,2-.29,2-1v0C48,17.28,47.44,17,46,17Z" style="fill:currentColor"/><path id="e467a059-af24-451b-9264-34a19a91c6f8" data-name="Shape" d="M30,17H27v2h3c1.46,0,2-.29,2-1v0C32,17.28,31.43,17,30,17Z" style="fill:currentColor"/><path id="74b8e134-366e-49b2-a55d-d0f078b46d05" data-name="Shape" d="M30,21H27v2h3c1.46,0,2-.29,2-1V22C32,21.3,31.43,21,30,21Z" style="fill:currentColor"/></g><path id="16703253-9e39-4613-9e3c-607f7d173cb9" data-name="DESIGNED" d="M16.54,41.93a3.54,3.54,0,1,1,0,7.07H14V41.93Zm0,5.79a2.26,2.26,0,1,0,0-4.51H15.32v4.51Zm10.68-4.51H23.77v1.64h2.37v1.23H23.77v1.64h3.44V49H22.44V41.93h4.77Zm7.55,3.7c0,1.36-1.13,2.26-2.79,2.26a2.72,2.72,0,0,1-2.9-1.88l1.3-.46a1.61,1.61,0,0,0,1.7,1.05c.81,0,1.35-.35,1.35-.87s-.77-.76-1.69-.95c-1.32-.29-2.35-.8-2.35-2.1s1.12-2.2,2.58-2.2a2.57,2.57,0,0,1,2.73,1.87l-1.26.47A1.47,1.47,0,0,0,31.91,43c-.69,0-1.18.32-1.18.8s.72.77,1.46.95C33.7,45.15,34.76,45.62,34.76,46.91Zm2.21-5h1.35V49H37ZM44,45.17h3.66v.51a3.34,3.34,0,0,1-3.41,3.49,3.71,3.71,0,1,1,3.12-5.68l-1.13.67a2.29,2.29,0,0,0-2-1.1,2.33,2.33,0,0,0-2.35,2.42,2.31,2.31,0,0,0,2.38,2.39,1.81,1.81,0,0,0,2-1.49H44Zm10.61-3.24H56V49H54.87l-3.65-4.71V49H49.89V41.93H51l3.66,4.73Zm8.91,1.28H60.1v1.64h2.37v1.23H60.1v1.64h3.44V49H58.77V41.93h4.77Zm5-1.28a3.54,3.54,0,1,1,0,7.07H66V41.93Zm0,5.79a2.26,2.26,0,1,0,0-4.51H67.35v4.51Z" style="fill:currentColor"/></g></g></g></svg>
