
<svg width="28px" height="56px" viewBox="0 0 28 56" version="1.1" xmlns="http://www.w3.org/2000/svg" xmlns:xlink="http://www.w3.org/1999/xlink">
    <!-- Generator: Sketch 47.1 (45422) - http://www.bohemiancoding.com/sketch -->
    <desc>Created with Sketch.</desc>
    <defs></defs>
    <g id="Mobile" stroke="none" stroke-width="1" fill="none" fill-rule="evenodd">
        <g id="How-to-Dye" transform="translate(-43.000000, -1231.000000)" fill="#000000">
            <path d="M67.5281882,1236.25 L69.2640941,1236.25 L69.2640941,1234.5 L67.5281882,1234.5 L67.5281882,1236.25 Z M64.2056643,1238 L48.7456863,1238 L48.7456863,1234.3495 C48.7456863,1233.4675 49.4582757,1232.75 50.3331723,1232.75 L64.2056643,1232.75 C65.0805609,1232.75 65.7922823,1233.4675 65.7922823,1234.3495 L65.7922823,1236.4005 C65.7922823,1237.2825 65.0805609,1238 64.2056643,1238 L64.2056643,1238 Z M56.9877676,1240.625 L56.9877676,1241.64788 C56.148457,1241.56038 55.3239017,1241.5 54.6251996,1241.5 C54.0202364,1241.5 53.3388933,1241.54462 52.6480028,1241.61375 L52.6480028,1240.625 L52.6480028,1239.75 L56.9877676,1239.75 L56.9877676,1240.625 Z M61.7884153,1244.125 C62.0192908,1244.125 62.1729185,1244.2615 62.2432227,1244.34288 C62.3794913,1244.50038 62.4463237,1244.713 62.4280967,1244.93175 L60.6210186,1252.0035 L60.6019236,1252.105 C60.3328582,1254.11313 60.4066342,1256.12912 60.7937412,1258.15563 C60.576753,1258.14863 60.3623686,1258.125 60.1453804,1258.125 C55.3846585,1258.125 50.8383209,1259.93362 47.3630373,1263.08887 L48.7048925,1258.91338 C49.2274002,1256.67512 49.3376302,1254.38438 49.0329788,1252.105 L47.2059378,1244.93175 C47.1885787,1244.71387 47.2545432,1244.50038 47.3916797,1244.34288 C47.4619839,1244.2615 47.6156116,1244.125 47.8456191,1244.125 L48.0218136,1244.10662 C48.0634753,1244.09787 52.1393824,1243.25 54.6251996,1243.25 C57.1162246,1243.25 61.5818425,1244.10137 61.6261081,1244.10925 L61.7884153,1244.125 Z M64.118869,1268.82713 C64.7793812,1271.64725 65.0215401,1274.54525 64.8401379,1277.44325 L64.4538988,1283.64262 C64.3974819,1284.54388 63.7109311,1285.25 62.8898476,1285.25 L46.7441868,1285.25 C45.9239713,1285.25 45.2374205,1284.54388 45.1810036,1283.64262 L44.7938965,1277.44325 C44.6133623,1274.54175 44.8555212,1271.64288 45.4960705,1268.89712 L46.0550322,1267.15763 C49.3159314,1262.59625 54.5713865,1259.875 60.1453804,1259.875 C60.5168643,1259.875 60.8857443,1259.90475 61.2546243,1259.92837 L64.118869,1268.82713 Z M69.5808969,1232.75 L67.2113854,1232.75 C67.1775352,1232.75 67.1454209,1232.75788 67.1124387,1232.7605 C66.5482693,1231.7175 65.4641961,1231 64.2056643,1231 L50.3331723,1231 C48.5009236,1231 47.0097804,1232.50238 47.0097804,1234.3495 L47.0097804,1239.75 L50.9120969,1239.75 L50.9120969,1240.625 L50.9120969,1241.82812 C49.3905754,1242.04688 48.0843062,1242.3085 47.7475404,1242.37675 C47.1139348,1242.40475 46.5124434,1242.69788 46.0854105,1243.1905 C45.6089044,1243.73913 45.3927841,1244.47412 45.4908628,1245.20825 L47.3187717,1252.38937 C47.5878371,1254.44038 47.4845507,1256.49925 47.0340831,1258.44263 L43.826129,1268.4255 C43.1274269,1271.40837 42.8696448,1274.47962 43.0614624,1277.5535 L43.4485695,1283.752 C43.5614033,1285.57375 45.0091489,1287 46.7441868,1287 L62.8898476,1287 C64.6240176,1287 66.0717631,1285.57375 66.1863329,1283.752 L66.5734399,1277.5535 C66.7652575,1274.48312 66.5074755,1271.41275 65.7896784,1268.35638 L62.6207822,1258.51175 C62.1494838,1256.50013 62.0470653,1254.44038 62.3152628,1252.38937 L64.1240767,1245.30975 L64.1440396,1245.20913 C64.2421183,1244.475 64.025998,1243.74 63.5503598,1243.19138 C63.1207231,1242.69612 62.5166279,1242.40213 61.8786824,1242.37675 C61.5532001,1242.3155 60.2486668,1242.07575 58.7236735,1241.86225 L58.7236735,1240.625 L58.7236735,1239.75 L62.4202851,1239.75 C62.7232007,1241.45187 63.971317,1245.12162 69.1417127,1245.86625 C69.1825065,1245.87237 69.2241683,1245.875 69.2649621,1245.875 C69.690259,1245.875 70.0617429,1245.56 70.1233675,1245.12425 C70.1910678,1244.64563 69.8621137,1244.202 69.3873434,1244.13375 C65.5466516,1243.58075 64.4764656,1241.10012 64.1761539,1239.75 L64.2056643,1239.75 C65.4641961,1239.75 66.5482693,1239.0325 67.1124387,1237.9895 C67.1454209,1237.99212 67.1775352,1238 67.2113854,1238 L69.5808969,1238 C70.3637905,1238 71,1237.35863 71,1236.56938 L71,1234.18062 C71,1233.39137 70.3637905,1232.75 69.5808969,1232.75 L69.5808969,1232.75 Z" id="Page-1"></path>
        </g>
    </g>
</svg>
