<svg width="16px" height="34px" viewBox="0 0 16 34" version="1.1" xmlns="http://www.w3.org/2000/svg" xmlns:xlink="http://www.w3.org/1999/xlink">
    <defs></defs>
    <g stroke="none" stroke-width="1" fill="none" fill-rule="evenodd">
        <g transform="translate(-38.000000, -84.000000)" stroke="currentColor" fill="currentColor">
            <g transform="translate(39.000000, 85.000000)">
                <path d="M12.8142873,26.1749333 L12.5871697,29.9536 C12.5540696,30.5034667 12.1512668,30.9333333 11.6700422,30.9333333 L2.19679307,30.9333333 C1.71556851,30.9333333 1.31276573,30.5029333 1.27966563,29.9536 L1.05254801,26.1749333 C0.946118452,24.4085333 1.08870351,22.6421333 1.46451697,20.9658667 L1.79195336,19.9061333 C3.70513925,17.1258667 6.78905028,15.4666667 10.0598496,15.4666667 C10.277801,15.4666667 10.4932063,15.4848 10.70963,15.4992 L12.390606,20.9237333 C12.7781318,22.64 12.9202076,24.4069333 12.8142873,26.1749333 L12.8142873,26.1749333 Z M3.53963874,10.7306667 L2.46821391,6.3584 C2.45752003,6.2256 2.49622168,6.096 2.57668039,5.99946667 C2.61792821,5.94986667 2.7075531,5.86666667 2.84351814,5.86666667 L2.9468923,5.85546667 C2.97133545,5.85066667 5.36218127,5.33333333 6.82062269,5.33333333 C8.28262872,5.33333333 10.9021199,5.85226667 10.9285999,5.8576 L11.0233172,5.86666667 C11.158773,5.86666667 11.2489071,5.94986667 11.2901549,5.99946667 C11.3706136,6.096 11.4093153,6.2256 11.3991306,6.35893333 L10.3389089,10.6693333 L10.3271966,10.7306667 C10.1698438,11.9541333 10.2131285,13.1829333 10.4397369,14.4192 C10.3124288,14.4144 10.1866484,14.4 10.0598496,14.4 C7.26620098,14.4 4.598842,15.5029333 2.55936649,17.4256 L3.34663969,14.8805333 C3.65421602,13.5173333 3.71888852,12.1210667 3.53963874,10.7306667 L3.53963874,10.7306667 Z M5.32704424,4.26666667 C4.94919385,4.26666667 4.64161752,3.94506667 4.64161752,3.54933333 L4.64161752,1.78453333 C4.64161752,1.3888 4.94919385,1.06666667 5.32704424,1.06666667 L8.53928182,1.06666667 C8.91764145,1.06666667 9.22470855,1.3888 9.22470855,1.78453333 L9.22470855,3.54933333 C9.22470855,3.94506667 8.91764145,4.26666667 8.53928182,4.26666667 L5.32704424,4.26666667 Z M13.3708782,20.6368 L11.5111617,14.6357333 C11.2351578,13.4090667 11.1750684,12.1541333 11.3329304,10.9045333 L12.3941706,6.5888 L12.4053737,6.52693333 C12.462917,6.08 12.3361181,5.63146667 12.0565496,5.29706667 C11.8049888,4.99573333 11.4500539,4.81706667 11.0767866,4.80106667 C10.9372569,4.77386667 10.4916786,4.68853333 9.91420913,4.59413333 C10.1189205,4.2992 10.2431732,3.94026667 10.2431732,3.54933333 L10.2431732,1.78453333 C10.2431732,0.800533333 9.47881548,0 8.53928182,0 L5.32704424,0 C4.38751058,0 3.62315284,0.800533333 3.62315284,1.78453333 L3.62315284,3.54933333 C3.62315284,3.93386667 3.74333168,4.28853333 3.94142305,4.58026667 C3.37108284,4.67946667 2.92855994,4.7712 2.78597488,4.8016 C2.41321681,4.81866667 2.0603188,4.99733333 1.80977649,5.2976 C1.53071717,5.632 1.40391832,6.08053333 1.46146158,6.52746667 L2.53441411,10.9045333 C2.6917669,12.1541333 2.63167749,13.4090667 2.36636744,14.5936 L0.484244723,20.6789333 C0.0743126917,22.4992 -0.0764200799,24.3712 0.0361202665,26.2416 L0.263237889,30.0208 C0.329947325,31.1306667 1.17934686,32 2.19679307,32 L11.6700422,32 C12.6879977,32 13.5373972,31.1306667 13.6035974,30.0208 L13.830715,26.2416 C13.9432554,24.3685333 13.7920134,22.4970667 13.3708782,20.6368 L13.3708782,20.6368 Z" ></path>
            </g>
        </g>
    </g>
</svg>
