
<svg width="23px" height="50px" viewBox="0 0 23 50" version="1.1" xmlns="http://www.w3.org/2000/svg" xmlns:xlink="http://www.w3.org/1999/xlink">
    <!-- Generator: Sketch 47.1 (45422) - http://www.bohemiancoding.com/sketch -->
    <desc>Created with Sketch.</desc>
    <defs></defs>
    <g id="Mobile" stroke="none" stroke-width="1" fill="none" fill-rule="evenodd">
        <g id="How-to-Dye" transform="translate(-43.000000, -1161.000000)" fill="currentColor">
            <g id="Page-1" transform="translate(43.000000, 1161.000000)">
                <g id="Group-3">
                    <path d="M20.6700179,40.8984167 L20.3044821,46.80175 C20.2502679,47.6609167 19.6005179,48.3334167 18.8250893,48.3334167 L3.54323214,48.3334167 C2.76780357,48.3334167 2.11805357,47.6609167 2.06466071,46.80175 L1.69748214,40.8984167 C1.526625,38.1375833 1.75744643,35.3775833 2.36283929,32.7584167 L5.39883929,23.2509167 C5.89416071,21.1225833 5.99848214,18.9409167 5.71016071,16.76675 L3.98105357,9.93508333 C3.96380357,9.72758333 4.02623214,9.52508333 4.15601786,9.37341667 C4.223375,9.29675 4.36794643,9.16675 4.58726786,9.16675 L4.75401786,9.14925 C4.79344643,9.14091667 8.64923214,8.33341667 11.0018036,8.33341667 C13.360125,8.33341667 17.5855536,9.14425 17.6282679,9.15175 L17.7810536,9.16675 C18.000375,9.16675 18.1457679,9.29675 18.2123036,9.37341667 C18.3420893,9.52508333 18.4045179,9.72758333 18.3880893,9.93508333 L16.6770536,16.6700833 L16.6581607,16.76675 C16.3706607,18.9409167 16.4749821,21.1225833 16.988375,23.31675 L19.9874107,32.6925833 C20.6125179,35.3775833 20.8416964,38.1384167 20.6700179,40.8984167 L20.6700179,40.8984167 Z M8.593375,6.66675 C7.983875,6.66675 7.48773214,6.16341667 7.48773214,5.54508333 L7.48773214,2.78841667 C7.48773214,2.16925 7.983875,1.66675 8.593375,1.66675 L13.7749464,1.66675 C14.3852679,1.66675 14.8805893,2.16925 14.8805893,2.78841667 L14.8805893,5.54508333 C14.8805893,6.16341667 14.3852679,6.66675 13.7749464,6.66675 L8.593375,6.66675 Z M21.5686607,32.24425 L18.5688036,22.8684167 C18.1235893,20.95425 18.0266607,18.9934167 18.2804821,17.0375833 L19.9931607,10.2950833 L20.0112321,10.1984167 C20.1040536,9.49925 19.8995179,8.79925 19.4485536,8.27675 C19.0427679,7.80591667 18.4694107,7.52591667 17.8673036,7.50175 C17.6422321,7.45925 16.9243036,7.32591667 15.9928036,7.17758333 C16.3230179,6.71758333 16.5234464,6.15675 16.5234464,5.54508333 L16.5234464,2.78841667 C16.5234464,1.25091667 15.2904821,8.33333333e-05 13.7749464,8.33333333e-05 L8.593375,8.33333333e-05 C7.07783929,8.33333333e-05 5.844875,1.25091667 5.844875,2.78841667 L5.844875,5.54508333 C5.844875,6.14675 6.03873214,6.70008333 6.35826786,7.15591667 C5.43826786,7.31091667 4.72444643,7.45425 4.49444643,7.50175 C3.89398214,7.52841667 3.32473214,7.80758333 2.92058929,8.27675 C2.469625,8.79925 2.26508929,9.49925 2.35708929,10.1984167 L4.08783929,17.0375833 C4.34166071,18.9934167 4.24555357,20.9534167 3.81758929,22.8025833 L0.781589286,32.3100833 C0.120339286,35.1534167 -0.122803571,38.0784167 0.0579107143,41.0025833 L0.425089286,46.90675 C0.532696429,48.64175 1.90201786,50.0000833 3.54323214,50.0000833 L18.8250893,50.0000833 C20.4663036,50.0000833 21.835625,48.64175 21.9440536,46.90675 L22.3095893,41.0025833 C22.4919464,38.07925 22.2479821,35.1550833 21.5686607,32.24425 L21.5686607,32.24425 Z" id="Fill-1"></path>
                </g>
                <path d="M11.1842429,27.9166667 C8.95735,27.9166667 7.57324286,25.775 7.57324286,22.3266667 C7.57324286,19.3575 10.0243857,16.0158333 11.1850643,14.6 C12.3457429,16.0141667 14.7952429,19.3508333 14.7952429,22.3266667 C14.7952429,25.775 13.4111357,27.9166667 11.1842429,27.9166667 L11.1842429,27.9166667 Z M11.1842429,12.1233333 L10.5878857,12.76 C10.3981357,12.9625 5.93038571,17.7891667 5.93038571,22.3266667 C5.93038571,27.6825 8.76102857,29.5833333 11.1842429,29.5833333 C13.6074571,29.5833333 16.4381,27.6825 16.4381,22.3266667 C16.4381,17.7891667 11.97035,12.9625 11.7806,12.76 L11.1842429,12.1233333 Z" id="Fill-4"></path>
            </g>
        </g>
    </g>
</svg>
