
<svg width="26px" height="35px" viewBox="0 0 26 35" version="1.1" xmlns="http://www.w3.org/2000/svg" xmlns:xlink="http://www.w3.org/1999/xlink">
    <!-- Generator: Sketch 47.1 (45422) - http://www.bohemiancoding.com/sketch -->
    <desc>Created with Sketch.</desc>
    <defs>
        <polygon id="path-1" points="25.75 17.24995 25.75 0 0 0 0 17.24995 0 34.4999 25.75 34.4999"></polygon>
    </defs>
    <g id="Mobile" stroke="none" stroke-width="1" fill="none" fill-rule="evenodd">
        <g id="How-to-Dye" transform="translate(-42.000000, -1313.000000)">
            <g id="Page-1" transform="translate(42.000000, 1313.000000)">
                <mask id="mask-2" fill="currentColor">
                    <use xlink:href="#path-1"></use>
                </mask>
                <g id="Clip-2"></g>
                <path d="M22,31.0859 L22,5.1639 L23.75,3.4139 L23.75,29.3359 L22,31.0859 Z M2,25.0299 C4.454,20.8439 8.954,18.2499 13.812,18.2499 C15.554,18.2499 17.251,18.5729 18.856,19.2089 C19.243,19.3619 19.624,19.5429 20,19.7329 L20,32.4999 L2,32.4999 L2,25.0299 Z M20,5.7499 L20,17.5269 C19.864,17.4689 19.73,17.4039 19.593,17.3499 C17.752,16.6199 15.808,16.2499 13.812,16.2499 C9.243,16.2499 4.948,18.2509 2,21.6189 L2,5.7499 L20,5.7499 Z M5.164,1.9999 L22.336,1.9999 L20.586,3.7499 L3.414,3.7499 L5.164,1.9999 Z M4.336,-0.0001 L0,4.3359 L0,34.4999 L21.414,34.4999 L25.75,30.1639 L25.75,-0.0001 L4.336,-0.0001 Z" id="Fill-1" fill="#000000" mask="url(#mask-2)"></path>
            </g>
        </g>
    </g>
</svg>
