<svg width="26px" height="21px" viewBox="0 0 26 21" version="1.1" xmlns="http://www.w3.org/2000/svg" xmlns:xlink="http://www.w3.org/1999/xlink">
    <defs></defs>
    <g stroke="none" stroke-width="1" fill="none" fill-rule="evenodd">
        <g transform="translate(-325.000000, -28.000000)" fill="currentColor">
            <g transform="translate(284.000000, 27.000000)">
                <path d="M61.2827894,18.1598591 C60.8035415,18.1598591 60.3382253,18.3507223 60.00108,18.6856386 C59.6639347,19.0202762 59.4716783,19.4853138 59.4716783,19.9584317 C59.4716783,20.4315496 59.6639347,20.8963086 60.00108,21.2315035 C60.3382253,21.5661411 60.8035415,21.7570043 61.2827894,21.7570043 C61.7592509,21.7570043 62.2245671,21.5661411 62.5617124,21.2315035 C62.8988577,20.8963086 63.0939005,20.4315496 63.0939005,19.9584317 C63.0939005,19.4853138 62.8988577,19.0202762 62.5617124,18.6856386 C62.2245671,18.3507223 61.7592509,18.1598591 61.2827894,18.1598591 M51.28267,18.1598591 C50.8062084,18.1598591 50.3381059,18.3507223 50.0009606,18.6856386 C49.6638153,19.0202762 49.4715589,19.4853138 49.4715589,19.9584317 C49.4715589,20.4315496 49.6638153,20.8963086 50.0009606,21.2315035 C50.3381059,21.5661411 50.8062084,21.7570043 51.28267,21.7570043 C51.7591315,21.7570043 52.2244477,21.5661411 52.561593,21.2315035 C52.8987383,20.8963086 53.093781,20.4315496 53.093781,19.9584317 C53.093781,19.4853138 52.8987383,19.0202762 52.561593,18.6856386 C52.2244477,18.3507223 51.7591315,18.1598591 51.28267,18.1598591 M66.7205807,6.15887988 L63.7425568,15.5710848 C63.5330252,16.2317224 62.9239346,16.6719617 62.2265176,16.6719617 L50.7150956,16.6719617 C50.0547366,16.6719617 49.4116529,16.2629292 49.1812238,15.648266 L44.7958274,3.85486797 L42.2521915,3.85486797 C41.6366924,3.85486797 41.1376616,3.35165772 41.1376616,2.74033808 C41.1376616,2.12929707 41.6366924,1.62580819 42.2521915,1.62580819 L45.5654103,1.62580819 C46.0284974,1.62580819 46.4470034,1.94456374 46.6111179,2.37477228 L51.1595144,14.4429019 L61.7570219,14.4429019 L64.1384936,6.91982516 L51.0034802,6.91982516 C50.3879811,6.91982516 49.8889503,6.41661492 49.8889503,5.80529527 C49.8889503,5.19425426 50.3879811,4.69076538 51.0034802,4.69076538 L65.6573192,4.69076538 C66.012297,4.69076538 66.34582,4.87939957 66.5559089,5.16360469 C66.7659978,5.44780981 66.8270183,5.82257049 66.7205807,6.15887988" ></path>
            </g>
        </g>
    </g>
</svg>
