<?xml version="1.0" encoding="UTF-8"?>
<svg width="14px" height="21px" viewBox="0 0 14 21" version="1.1" xmlns="http://www.w3.org/2000/svg" xmlns:xlink="http://www.w3.org/1999/xlink">
    <!-- Generator: Sketch 47.1 (45422) - http://www.bohemiancoding.com/sketch -->
    <title>Group</title>
    <desc>Created with Sketch.</desc>
    <defs></defs>
    <g id="Contact-and-FAQ" stroke="none" stroke-width="1" fill="none" fill-rule="evenodd">
        <g id="Contact-Us" transform="translate(-150.000000, -1001.000000)" fill="currentColor">
            <g id="Group" transform="translate(150.000000, 1001.000000)">
                <path d="M2.1875,0.875 C1.463875,0.875 0.875,1.463875 0.875,2.1875 L0.875,18.8125 C0.875,19.536125 1.463875,20.125 2.1875,20.125 L11.8125,20.125 C12.536125,20.125 13.125,19.536125 13.125,18.8125 L13.125,2.1875 C13.125,1.463875 12.536125,0.875 11.8125,0.875 L2.1875,0.875 Z M11.8125,21 L2.1875,21 C0.980875,21 0,20.01825 0,18.8125 L0,2.1875 C0,0.98175 0.980875,0 2.1875,0 L11.8125,0 C13.019125,0 14,0.98175 14,2.1875 L14,18.8125 C14,20.01825 13.019125,21 11.8125,21 L11.8125,21 Z" id="Fill-5655"></path>
                <path d="M13.5625,5 L0.4375,5 C0.196,5 0,4.776 0,4.5 C0,4.224 0.196,4 0.4375,4 L13.5625,4 C13.804,4 14,4.224 14,4.5 C14,4.776 13.804,5 13.5625,5" id="Fill-5656"></path>
                <path d="M13.5625,18 L0.4375,18 C0.196,18 0,17.776 0,17.5 C0,17.224 0.196,17 0.4375,17 L13.5625,17 C13.804,17 14,17.224 14,17.5 C14,17.776 13.804,18 13.5625,18" id="Fill-5657"></path>
                <path d="M7,18 C6.448,18 6,18.447 6,19 C6,19.552 6.448,20 7,20 C7.553,20 8,19.552 8,19 C8,18.447 7.553,18 7,18" id="Fill-5658"></path>
                <path d="M8.58333333,3 L4.41666667,3 C4.18666667,3 4,2.776 4,2.5 C4,2.224 4.18666667,2 4.41666667,2 L8.58333333,2 C8.81333333,2 9,2.224 9,2.5 C9,2.776 8.81333333,3 8.58333333,3" id="Fill-5659"></path>
            </g>
        </g>
    </g>
</svg>
