<svg width="19px" height="25px" viewBox="0 0 19 25" version="1.1" xmlns="http://www.w3.org/2000/svg" xmlns:xlink="http://www.w3.org/1999/xlink">
    <defs></defs>
    <g stroke="none" stroke-width="1" fill="none" fill-rule="evenodd">
        <g transform="translate(-230.000000, -90.000000)" fill="currentColor">
            <path d="M246.828571,112.826087 L232.171429,112.826087 L232.171429,94.6195652 L232.625257,94.6195652 L234.157743,97.3342391 C234.1667,97.3497283 234.175657,97.3440217 234.185157,97.3589674 C234.726386,98.2089674 235.649243,98.6956522 236.654071,98.6956522 L242.536743,98.6956522 C243.578757,98.6956522 244.550471,98.1663043 245.0727,97.2608696 C245.0822,97.2442935 245.091429,97.2195652 245.099843,97.2024457 L246.408671,94.6195652 L246.828571,94.6195652 L246.828571,112.826087 Z M236.136186,94.6195652 C236.592186,94.6195652 236.999871,94.3589674 237.155943,93.930163 L237.8052,92.173913 L241.439086,92.173913 L242.088343,93.930163 C242.244414,94.3589674 242.6521,94.6195652 243.1081,94.6195652 L243.972329,94.6195652 L243.180571,96.16875 C243.042686,96.3923913 242.798129,96.5217391 242.536743,96.5217391 L236.654071,96.5217391 C236.401914,96.5217391 236.1693,96.4057065 236.027886,96.1959239 L235.125114,94.6195652 L236.136186,94.6195652 Z M247.914286,92.4456522 L245.742857,92.4456522 L245.471157,92.4456522 L243.867557,92.4456522 L243.440329,91.2983696 C243.1518,90.5067935 242.3937,90 241.553629,90 L237.690657,90 C236.850314,90 236.092214,90.5070652 235.803957,91.2983696 L235.376729,92.4456522 L233.527757,92.4456522 L233.256057,92.4456522 L231.085714,92.4456522 C230.486129,92.4456522 230,92.9817935 230,93.5820652 L230,113.913043 C230,114.513315 230.486129,115 231.085714,115 L247.914286,115 C248.513871,115 249,114.513315 249,113.913043 L249,93.5820652 C249,92.9817935 248.513871,92.4456522 247.914286,92.4456522 L247.914286,92.4456522 Z" ></path>
        </g>
    </g>
</svg>
