
<svg width="118px" height="118px" viewBox="0 0 118 118" version="1.1" xmlns="http://www.w3.org/2000/svg" xmlns:xlink="http://www.w3.org/1999/xlink">
    <!-- Generator: Sketch 47.1 (45422) - http://www.bohemiancoding.com/sketch -->
    <desc>Created with Sketch.</desc>
    <defs></defs>
    <g id="Desktop-Tile-Pages" stroke="none" stroke-width="1" fill="none" fill-rule="evenodd" stroke-linecap="round" stroke-linejoin="round">
        <g id="How-to-Dye" transform="translate(-982.000000, -1571.000000)" stroke="currentColor" stroke-width="3">
            <g id="Group" transform="translate(984.000000, 1573.000000)">
                <path d="M98,55 C66.7267619,55 57,31.4639286 57,0" id="Stroke-3733"></path>
                <path d="M16,55 C47.2693333,55 57,31.4639286 57,0" id="Stroke-3734"></path>
                <polygon id="Stroke-3735" points="16 67 0 67 0 55 16 55"></polygon>
                <polygon id="Stroke-3736" points="114 67 98 67 98 55 114 55"></polygon>
                <path d="M98.2758621,66.8275862 C84.5860345,66.8275862 74.6896552,87.9922759 74.6896552,114 L114,114 L114,0 L0,0 L0,114 L39.3103448,114 C39.3103448,87.9922759 29.4061034,66.8275862 15.7241379,66.8275862" id="Stroke-3737"></path>
                <path d="M40,12 C37.48,24.2159375 26.086,38.1155625 16,43" id="Stroke-3738"></path>
                <path d="M75,12 C77.52,24.2159375 88.914,38.1155625 99,43" id="Stroke-3739"></path>
                <path d="M16,77 C18.52,77 24,87.958 24,93" id="Stroke-3740"></path>
                <path d="M98,77 C95.48,77 90,87.958 90,93" id="Stroke-3741"></path>
                <path d="M35,90 L76,90" id="Stroke-3742"></path>
            </g>
        </g>
    </g>
</svg>
