
<svg width="24px" height="17px" viewBox="0 0 24 17" version="1.1" xmlns="http://www.w3.org/2000/svg" xmlns:xlink="http://www.w3.org/1999/xlink">
    <!-- Generator: Sketch 47.1 (45422) - http://www.bohemiancoding.com/sketch -->
    <desc>Created with Sketch.</desc>
    <defs></defs>
    <g id="Desktop-Blog" stroke="none" stroke-width="1" fill="none" fill-rule="evenodd" stroke-linecap="round" stroke-linejoin="round">
        <g id="Blog-Post–-Instruction-Format" transform="translate(-851.000000, -832.000000)" stroke="currentColor">
            <g id="Group" transform="translate(851.000000, 832.000000)">
                <path d="M13.5,12 C13.5,12.828 12.828,13.5 12,13.5 C11.172,13.5 10.5,12.828 10.5,12 C10.5,11.172 11.172,10.5 12,10.5 C12.828,10.5 13.5,11.172 13.5,12 L13.5,12 Z" id="Stroke-3914"></path>
                <path d="M13.06,10.9394 L18.011,5.9904" id="Stroke-3915"></path>
                <path d="M2.5,12.5 L4.5,12.5" id="Stroke-3916"></path>
                <path d="M21.5,12.5009 L19.5,12.4999" id="Stroke-3917"></path>
                <path d="M20.7764,8.3652 L18.9284,9.1302" id="Stroke-3918"></path>
                <path d="M15.6352,3.2236 L14.8702,5.0716" id="Stroke-3919"></path>
                <path d="M12,2.5 L12,4.5" id="Stroke-3920"></path>
                <path d="M8.3652,3.2236 L9.1302,5.0716" id="Stroke-3921"></path>
                <path d="M5.2832,5.2822 L6.6962,6.6972" id="Stroke-3922"></path>
                <path d="M3.2236,8.3643 L5.0706,9.1303" id="Stroke-3923"></path>
                <path d="M12,0.5 C5.648,0.5 0.5,5.649 0.5,12 L0.5,16.5 L23.5,16.5 L23.5,12 C23.5,5.649 18.352,0.5 12,0.5 L12,0.5 Z" id="Stroke-3924"></path>
            </g>
        </g>
    </g>
</svg>
