<svg xmlns="http://www.w3.org/2000/svg" viewBox="0 0 92.51 58.77"><title>Google+</title><path fill="currentColor" d="M.08 27.91C.33 12.78 14.25-.48 29.38 0 36.64-.31 43.45 2.84 49 7.28A104.6 104.6 0 0 1 41.56 15c-6.68-4.62-16.17-5.93-22.85-.6-9.55 6.61-10 22.21-.8 29.32 8.94 8.11 25.83 4.08 28.3-8.33-5.6-.08-11.21 0-16.81-.18v-10h28.09c.51 7.85-.49 16.21-5.32 22.71-7.31 10.28-22 13.28-33.43 8.88S-.89 40.29.08 27.91zm75.64-11.16h8.35c0 2.79 0 5.6.06 8.39l8.39.06v8.35l-8.39.07q0 4.21-.06 8.39h-8.36c0-2.79 0-5.58-.06-8.38l-8.39-.08v-8.36l8.39-.06q.02-4.2.07-8.38z"/></svg>
