
<svg width="18px" height="22px" viewBox="0 0 18 22" version="1.1" xmlns="http://www.w3.org/2000/svg" xmlns:xlink="http://www.w3.org/1999/xlink">
    <!-- Generator: Sketch 47.1 (45422) - http://www.bohemiancoding.com/sketch -->
    <desc>Created with Sketch.</desc>
    <defs></defs>
    <g id="Desktop-Blog" stroke="none" stroke-width="1" fill="none" fill-rule="evenodd">
        <g id="Blog-Post–-Instruction-Format" transform="translate(-249.000000, -1089.000000)">
            <g id="Group" transform="translate(250.000000, 1090.000000)">
                <polygon id="Stroke-2934" stroke="currentColor" stroke-linecap="round" stroke-linejoin="round" points="16.25 19.5833333 0.416666667 19.5833333 0.416666667 0.416666667 16.25 0.416666667"></polygon>
                <path d="M3.75,6.25 L12.9166667,6.25" id="Stroke-2935" stroke="currentColor" stroke-linecap="round"></path>
                <path d="M3.75,8.75 L12.9166667,8.75" id="Stroke-2936" stroke="currentColor" stroke-linecap="round"></path>
                <path d="M3.75,11.25 L12.9166667,11.25" id="Stroke-2937" stroke="currentColor" stroke-linecap="round"></path>
                <path d="M3.75,13.75 L12.9166667,13.75" id="Stroke-2938" stroke="currentColor" stroke-linecap="round"></path>
                <path d="M3.75,16.25 L12.9166667,16.25" id="Stroke-2939" stroke="currentColor" stroke-linecap="round"></path>
                <polygon id="Fill-2940" fill="currentColor" points="4.16666667 1.66666667 2.5 1.66666667 2.5 3.33333333 4.16666667 3.33333333"></polygon>
                <polygon id="Fill-2941" fill="currentColor" points="7.5 1.66666667 5.83333333 1.66666667 5.83333333 3.33333333 7.5 3.33333333"></polygon>
                <polygon id="Fill-2942" fill="currentColor" points="14.1666667 1.66666667 12.5 1.66666667 12.5 3.33333333 14.1666667 3.33333333"></polygon>
                <polygon id="Fill-2943" fill="currentColor" points="10.8333333 1.66666667 9.16666667 1.66666667 9.16666667 3.33333333 10.8333333 3.33333333"></polygon>
                <path d="M13.3333333,1.66666667 L13.3333333,0.416666667" id="Stroke-2944" stroke="currentColor" stroke-linecap="round"></path>
                <path d="M10,1.66666667 L10,0.416666667" id="Stroke-2945" stroke="currentColor" stroke-linecap="round"></path>
                <path d="M6.66666667,1.66666667 L6.66666667,0.416666667" id="Stroke-2946" stroke="currentColor" stroke-linecap="round"></path>
                <path d="M3.33333333,1.66666667 L3.33333333,0.416666667" id="Stroke-2947" stroke="currentColor" stroke-linecap="round"></path>
            </g>
        </g>
    </g>
</svg>
