<svg xmlns="http://www.w3.org/2000/svg" viewBox="0 0 141.49 76.65"><title>Asset 1</title><g id="Layer_2" data-name="Layer 2"><g id="Artwork"><path d="M60.93,76.65,35.58,37.06H33.24V56.34c0,7.13,2.88,8.7,10.23,8.7v2H0V65c7.35,0,10.23-1.57,10.23-8.7V11.86C10.23,4.72,7.35,3.15,0,3.15v-2H43.26c19.82,0,29.62,6.12,29.62,18.07,0,9-5.76,13.53-14.81,16.68l21.62,33c2.56,3.8,4.15,5.56,9.27,5.74v2.05ZM33.24,33C45.18,33,50.5,31,50.5,19.74,50.5,8.15,46,5.19,33.24,5.19Z"/><path d="M76.07,67.08V65c3.84-.55,5.76-1.85,5.76-5V28.91c0-3.15-1.92-4.45-5.76-5v-2h25.15V60c0,3.15,1.92,4.45,5.75,5v2ZM91.52,0c5.54,0,10,3.89,10,8.71s-4.48,8.71-10,8.71-10-3.89-10-8.71S86,0,91.52,0Z"/><path d="M140,26.32H129.77V56.15c0,3.89,1.17,5.37,3.3,5.37a8.9,8.9,0,0,0,6.08-2.77l2.34,2a23,23,0,0,1-16.72,7.41c-9.7,0-13.75-5.55-13.75-12.6V26.32h-5.75V23.54c11-3.8,15.34-8.07,20.14-17.43h4.36V21.87H140Z"/></g></g></svg>