
<svg width="21px" height="20px" viewBox="0 0 21 20" version="1.1" xmlns="http://www.w3.org/2000/svg" xmlns:xlink="http://www.w3.org/1999/xlink">
    <!-- Generator: Sketch 47.1 (45422) - http://www.bohemiancoding.com/sketch -->
    <desc>Created with Sketch.</desc>
    <defs></defs>
    <g id="Mobile" stroke="none" stroke-width="1" fill="none" fill-rule="evenodd">
        <g id="Nav" transform="translate(-324.000000, -93.000000)" fill="currentColor">
            <path d="M344.347727,112.359375 C344.761364,111.953125 345,111.3875 345,110.8125 C345,110.2375 344.761364,109.671875 344.347727,109.265625 C343.934091,108.859375 343.361364,108.625 342.772727,108.625 C342.187273,108.625 341.611364,108.859375 341.197727,109.265625 C340.784091,109.671875 340.545455,110.2375 340.545455,110.8125 C340.545455,111.3875 340.784091,111.953125 341.197727,112.359375 C341.611364,112.765625 342.187273,113 342.772727,113 C343.358182,113 343.934091,112.765625 344.347727,112.359375 M336.075,112.359375 C336.488636,111.953125 336.727273,111.3875 336.727273,110.8125 C336.727273,110.2375 336.488636,109.671875 336.075,109.265625 C335.661364,108.859375 335.085455,108.625 334.5,108.625 C333.914545,108.625 333.338636,108.859375 332.925,109.265625 C332.511364,109.671875 332.272727,110.2375 332.272727,110.8125 C332.272727,111.3875 332.511364,111.953125 332.925,112.359375 C333.338636,112.765625 333.914545,113 334.5,113 C335.085455,113 335.661364,112.765625 336.075,112.359375 M327.802273,112.359375 C328.215909,111.953125 328.454545,111.3875 328.454545,110.8125 C328.454545,110.2375 328.215909,109.671875 327.802273,109.265625 C327.388636,108.859375 326.812727,108.625 326.227273,108.625 C325.641818,108.625 325.065909,108.859375 324.652273,109.265625 C324.238636,109.671875 324,110.2375 324,110.8125 C324,111.3875 324.238636,111.953125 324.652273,112.359375 C325.065909,112.765625 325.641818,113 326.227273,113 C326.812727,113 327.388636,112.765625 327.802273,112.359375 M344.347727,104.546875 C344.761364,104.140625 345,103.575 345,103 C345,102.425 344.761364,101.859375 344.347727,101.453125 C343.934091,101.046875 343.358182,100.8125 342.772727,100.8125 C342.187273,100.8125 341.611364,101.046875 341.197727,101.453125 C340.784091,101.859375 340.545455,102.425 340.545455,103 C340.545455,103.575 340.784091,104.140625 341.197727,104.546875 C341.611364,104.953125 342.187273,105.1875 342.772727,105.1875 C343.358182,105.1875 343.934091,104.953125 344.347727,104.546875 M336.075,104.546875 C336.488636,104.140625 336.727273,103.575 336.727273,103 C336.727273,102.425 336.488636,101.859375 336.075,101.453125 C335.661364,101.046875 335.085455,100.8125 334.5,100.8125 C333.914545,100.8125 333.338636,101.046875 332.925,101.453125 C332.511364,101.859375 332.272727,102.425 332.272727,103 C332.272727,103.575 332.511364,104.140625 332.925,104.546875 C333.338636,104.953125 333.914545,105.1875 334.5,105.1875 C335.085455,105.1875 335.661364,104.953125 336.075,104.546875 M327.802273,104.546875 C328.215909,104.140625 328.454545,103.575 328.454545,103 C328.454545,102.425 328.215909,101.859375 327.802273,101.453125 C327.388636,101.046875 326.812727,100.8125 326.227273,100.8125 C325.641818,100.8125 325.065909,101.046875 324.652273,101.453125 C324.238636,101.859375 324,102.425 324,103 C324,103.575 324.238636,104.140625 324.652273,104.546875 C325.065909,104.953125 325.641818,105.1875 326.227273,105.1875 C326.812727,105.1875 327.388636,104.953125 327.802273,104.546875 M344.347727,96.734375 C344.761364,96.328125 345,95.7625 345,95.1875 C345,94.6125 344.761364,94.046875 344.347727,93.640625 C343.934091,93.234375 343.358182,93 342.772727,93 C342.187273,93 341.611364,93.234375 341.197727,93.640625 C340.784091,94.046875 340.545455,94.6125 340.545455,95.1875 C340.545455,95.7625 340.784091,96.328125 341.197727,96.734375 C341.611364,97.140625 342.187273,97.375 342.772727,97.375 C343.358182,97.375 343.934091,97.140625 344.347727,96.734375 M336.075,96.734375 C336.488636,96.328125 336.727273,95.7625 336.727273,95.1875 C336.727273,94.6125 336.488636,94.046875 336.075,93.640625 C335.661364,93.234375 335.085455,93 334.5,93 C333.914545,93 333.338636,93.234375 332.925,93.640625 C332.511364,94.046875 332.272727,94.6125 332.272727,95.1875 C332.272727,95.7625 332.511364,96.328125 332.925,96.734375 C333.338636,97.140625 333.914545,97.375 334.5,97.375 C335.085455,97.375 335.661364,97.140625 336.075,96.734375 M326.227273,97.375 C325.641818,97.375 325.065909,97.140625 324.652273,96.734375 C324.238636,96.328125 324,95.7625 324,95.1875 C324,94.6125 324.238636,94.046875 324.652273,93.640625 C325.065909,93.234375 325.641818,93 326.227273,93 C326.812727,93 327.388636,93.234375 327.802273,93.640625 C328.215909,94.046875 328.454545,94.6125 328.454545,95.1875 C328.454545,95.7625 328.215909,96.328125 327.802273,96.734375 C327.388636,97.140625 326.812727,97.375 326.227273,97.375" id="view-apps"></path>
        </g>
    </g>
</svg>
