
<svg width="100px" height="106px" viewBox="0 0 100 106" version="1.1" xmlns="http://www.w3.org/2000/svg" xmlns:xlink="http://www.w3.org/1999/xlink">
    <!-- Generator: Sketch 47.1 (45422) - http://www.bohemiancoding.com/sketch -->
    <desc>Created with Sketch.</desc>
    <defs></defs>
    <g id="Desktop-Tile-Pages" stroke="none" stroke-width="1" fill="none" fill-rule="evenodd" stroke-linecap="round" stroke-linejoin="round">
        <g id="How-to-Dye" transform="translate(-590.000000, -1983.000000)" stroke="currentColor" stroke-width="3">
            <g id="Stroke-1616-+-Stroke-1617-+-Stroke-1618" transform="translate(592.000000, 1985.000000)">
                <path d="M80,52.6097346 L41.2995437,12 L2.59908746,50.8440939 C-0.866362487,54.322406 -0.866362487,59.727032 2.59908746,63.2035784 L23.7084272,84.391266 C27.1738772,87.869578 32.5567588,87.869578 36.0222088,84.391266 L67.6862185,52.6097346 L80,52.6097346 L80,52.6097346 Z" id="Stroke-1616"></path>
                <path d="M38,44 L38,7.04 C38,3.16976 34.76,0 30.8,0 L27.2,0 C23.24,0 20,3.16976 20,7.04 L20,33.44" id="Stroke-1617"></path>
                <path d="M96,91.5 C96,97.5935 91.59175,102 85.5,102 C79.40825,102 75,97.5935 75,91.5 C75,85.40825 85.5,67 85.5,67 C85.5,67 96,85.40825 96,91.5 L96,91.5 Z" id="Stroke-1618"></path>
            </g>
        </g>
    </g>
</svg>
