<svg width="29px" height="30px" viewBox="0 0 29 30" version="1.1" xmlns="http://www.w3.org/2000/svg" xmlns:xlink="http://www.w3.org/1999/xlink">
    <!-- Generator: Sketch 47.1 (45422) - http://www.bohemiancoding.com/sketch -->
    <desc>Created with Sketch.</desc>
    <defs></defs>
    <g stroke="none" stroke-width="1" fill="none" fill-rule="evenodd">
        <g transform="translate(-129.000000, -84.000000)" stroke="currentColor" fill="currentColor">
            <g transform="translate(130.000000, 85.000000)">
                <path d="M11.0493285,4.44167697 L1.6586672,14.1694886 C1.33246649,14.5086365 1.15265267,14.9588433 1.15265267,15.4365164 C1.15265267,15.9153836 1.33246649,16.3655905 1.6586672,16.7035442 L7.04386048,22.2815712 C7.69626189,22.9586728 8.83623539,22.9586728 9.48978945,22.2815712 L17.5583582,13.9222928 C17.6655549,13.8112338 17.8119417,13.7479422 17.9652446,13.7479422 L20.0319508,13.7479422 L11.0493285,4.44167697 Z M8.26682497,24 C7.49685298,24 6.7729871,23.6907067 6.22893504,23.1258583 L0.844894409,17.5478313 C0.299689695,16.9841771 0,16.2342304 0,15.4365164 C0,14.6388024 0.299689695,13.8888557 0.844894409,13.3252015 L10.6424421,3.17464921 C10.8672094,2.9417836 11.2314476,2.9417836 11.4562149,3.17464921 L21.830089,13.9222928 C21.9960709,14.0942551 22.045635,14.3498102 21.9557281,14.5731224 C21.8669739,14.7964345 21.6560384,14.9421248 21.4232026,14.9421248 L18.2038437,14.9421248 L10.3035622,23.1258583 C9.75951018,23.6907067 9.0356443,24 8.26682497,24 L8.26682497,24 Z" ></path>
                <path d="M11.4,13 C11.0688,13 10.8,12.7352727 10.8,12.4090909 L10.8,2.95454545 C10.8,1.97718182 9.9924,1.18181818 9,1.18181818 C8.0076,1.18181818 7.2,1.97718182 7.2,2.95454545 L7.2,9.47345455 C7.2,9.79963636 6.9312,10.0643636 6.6,10.0643636 C6.2688,10.0643636 6,9.79963636 6,9.47345455 L6,2.95454545 C6,1.326 7.3464,0 9,0 C10.6536,0 12,1.326 12,2.95454545 L12,12.4090909 C12,12.7352727 11.7312,13 11.4,13" id="Fill-2013"></path>
                <path d="M23.5,19.6344307 C22.4453333,21.3888069 21.1666667,23.7977347 21.1666667,24.6604514 C21.1666667,25.8882921 22.2131667,26.8868171 23.5,26.8868171 C24.7868333,26.8868171 25.8333333,25.8882921 25.8333333,24.6604514 C25.8333333,23.7977347 24.5546667,21.3888069 23.5,19.6344307 M23.5,28 C21.5703333,28 20,26.5016559 20,24.6604514 C20,23.0151671 22.6938333,18.7316394 23.0018333,18.2496313 C23.2118333,17.9167896 23.7881667,17.9167896 23.9981667,18.2496313 C24.3061667,18.7316394 27,23.0151671 27,24.6604514 C27,26.5016559 25.4296667,28 23.5,28" ></path>
            </g>
        </g>
    </g>
</svg>
