
<svg width="59px" height="55px" viewBox="0 0 59 55" version="1.1" xmlns="http://www.w3.org/2000/svg" xmlns:xlink="http://www.w3.org/1999/xlink">
    <!-- Generator: Sketch 47.1 (45422) - http://www.bohemiancoding.com/sketch -->
    <desc>Created with Sketch.</desc>
    <defs></defs>
    <g id="Mobile" stroke="none" stroke-width="1" fill="none" fill-rule="evenodd" stroke-linecap="round" stroke-linejoin="round">
        <g id="How-to-Dye" transform="translate(-43.000000, -1732.000000)" stroke="currentColor" stroke-width="2">
            <g id="Group-2" transform="translate(22.000000, 1589.000000)">
                <g id="Group" transform="translate(22.000000, 144.000000)">
                    <path d="M8.85191002,49.0177617 C-2.27402914,37.91915 -3.25645203,18.9526097 7.86948713,7.8500773 C18.9954263,-3.24853438 37.0219038,-2.26835141 48.1488254,8.83026026 C59.2737821,19.9327927 60.256205,37.91915 49.1312483,49.0177617 C43.8094635,54.3274128 34.8035929,54.3274128 29.4827906,49.0177617 L18.6761389,38.2357491 C16.7112931,36.2753832 15.7131514,36.2910661 14.7464473,37.2555661 C13.7787608,38.2220265 13.7640244,40.196115 15.7288702,42.1564809 C17.6632609,44.0884216 17.6632609,47.0877814 15.7288702,49.0177617 C13.7944795,50.9477419 10.7872831,50.9477419 8.85191002,49.0177617 L8.85191002,49.0177617 Z" id="Stroke-1548"></path>
                    <path d="M41.8285732,18.82925 C40.2676708,20.39025 37.7328292,20.39025 36.1729267,18.82925 C34.6090244,17.26725 34.6090244,14.73225 36.1729267,13.17225 C37.7328292,11.60925 40.2676708,11.60925 41.8285732,13.17225 C43.3904756,14.73225 43.3904756,17.26725 41.8285732,18.82925 L41.8285732,18.82925 Z" id="Stroke-1549"></path>
                    <path d="M43.879,30.1223171 C42.707,28.9490727 42.707,27.0506772 43.879,25.878433 C45.051,24.707189 46.949,24.707189 48.121,25.878433 C49.293,27.0506772 49.293,28.9490727 48.121,30.1223171 C46.949,31.292561 45.051,31.292561 43.879,30.1223171 L43.879,30.1223171 Z" id="Stroke-1550"></path>
                    <path d="M35.4647866,43.5358902 C33.5117378,41.5847439 33.5117378,38.4165062 35.4647866,36.4633598 C37.4148354,34.5122134 40.5839146,34.5122134 42.5359634,36.4633598 C44.4880122,38.4165062 44.4880122,41.5847439 42.5359634,43.5358902 C40.5839146,45.4880366 37.4148354,45.4880366 35.4647866,43.5358902 L35.4647866,43.5358902 Z" id="Stroke-1551"></path>
                    <path d="M26.8281433,10.1723965 C28.3901189,11.7325916 28.3911189,14.2659082 26.8281433,15.8291036 C25.2671677,17.3902988 22.7332073,17.3902988 21.1722317,15.8291036 C19.6092561,14.2659082 19.6092561,11.7325916 21.1722317,10.1723965 C22.7342073,8.60920115 25.2661677,8.60920115 26.8281433,10.1723965 L26.8281433,10.1723965 Z" id="Stroke-1552"></path>
                </g>
            </g>
        </g>
    </g>
</svg>
