
<svg width="162px" height="147px" viewBox="0 0 162 147" version="1.1" xmlns="http://www.w3.org/2000/svg" xmlns:xlink="http://www.w3.org/1999/xlink">
    <!-- Generator: Sketch 47.1 (45422) - http://www.bohemiancoding.com/sketch -->
    <desc>Created with Sketch.</desc>
    <defs></defs>
    <g id="Desktop-Tile-Pages" stroke="none" stroke-width="1" fill="none" fill-rule="evenodd" stroke-linejoin="round">
        <g id="How-to-Dye" transform="translate(-952.000000, -1957.000000)" stroke-width="3">
            <g id="Group" transform="translate(1004.000000, 1981.000000)" stroke="currentColor" stroke-linecap="round">
                <path d="M0,11 L67,11" id="Stroke-2722"></path>
                <path d="M41,0 L41,11" id="Stroke-2723"></path>
                <path d="M26,0 L26,11" id="Stroke-2724"></path>
                <path d="M15,11 C15,20.14625 9.136875,26 0,26" id="Stroke-2725"></path>
                <path d="M52,11 C52,20.14625 57.859375,26 67,26" id="Stroke-2726"></path>
                <path d="M29.7777778,45.9310345 C29.7777778,44.0172414 30.90375,42.1034483 33.5,42.1034483 C36.0925278,42.1034483 37.2222222,44.0172414 37.2222222,45.9310345 L37.2222222,111 L67,111 L67,0 L0,0 L0,111 L29.7777778,111 L29.7777778,45.9310345 L29.7777778,45.9310345 Z" id="Stroke-2727"></path>
            </g>
            <g id="Stroke-1818" transform="translate(954.000000, 1959.000000)" stroke="currentColor">
                <polygon points="145.25 0 148.448276 10.0517241 158.5 10.0517241 150.46319 15.8447155 153.931034 26.5 145.25 20.1034483 136.568966 26.5 140.065138 16.1307328 132 10.0517241 142.051724 10.0517241"></polygon>
                <polygon points="13.25 117 16.4482759 127.051724 26.5 127.051724 18.4631897 132.844716 21.9310345 143.5 13.25 137.103448 4.56896552 143.5 8.06513793 133.130733 0 127.051724 10.0517241 127.051724"></polygon>
            </g>
        </g>
    </g>
</svg>
