
<svg width="80px" height="117px" viewBox="0 0 80 117" version="1.1" xmlns="http://www.w3.org/2000/svg" xmlns:xlink="http://www.w3.org/1999/xlink">
    <!-- Generator: Sketch 47.1 (45422) - http://www.bohemiancoding.com/sketch -->
    <desc>Created with Sketch.</desc>
    <defs></defs>
    <g id="Desktop-Tile-Pages" stroke="none" stroke-width="1" fill="none" fill-rule="evenodd">
        <g id="How-to-Dye" transform="translate(-198.000000, -1977.000000)" stroke="currentColor" stroke-width="3">
            <g id="Page-1" transform="translate(200.000000, 1979.000000)">
                <path d="M41,69.2767956 L49.1070672,39.1376726 C49.8548507,35.0747327 53.9463814,33.4224293 57.9527986,34.1776799 C61.956176,34.9360132 64.6220545,38.8756469 63.874271,42.9385869 L56.7581689,71" id="Stroke-1"></path>
                <path d="M56,71.5857145 L61.6228277,49.5140981 C62.6179124,45.608842 66.6162344,43.2289826 70.509653,44.2278617 C74.4000743,45.2267407 76.7678962,49.2403089 75.7728116,53.145565 L69.5685187,77.48572 C68.5734341,81.3939847 64.575112,83.7708354 60.6846907,82.7719563 C60.0312917,82.6034707 59.4228514,82.3507423 58.862367,82.0288144" id="Stroke-3"></path>
                <path d="M40.4648619,69 L57.850105,9.81928172 C58.7902564,4.95386963 55.2019615,0.215539207 50.0568244,0.00676219537 C45.8669536,-0.162680017 42.3391186,3.19893244 41.544071,7.32000909 L28.6177452,58.591407 C28.3759056,59.8349918 26.6014077,59.8349918 26.3595681,58.591407 L16.4592601,7.34118937 C15.6611895,3.2080097 12.1242856,-0.171757278 7.92232277,0.00676219537 C2.78927759,0.227642222 -0.789948263,4.95992114 0.150203122,9.81928172 L11.7978021,68.3252569" id="Stroke-5"></path>
                <path d="M67.4503212,83.4553728 C67.4503212,83.4553728 72.3974304,113 52.6089935,113 L22.1098836,113 C22.1098836,113 7.2685559,113 7.2685559,88.379979 C7.2685559,88.379979 6.84520914,86.7243962 5.67798166,86.1253763 C2.9050604,84.7075954 1,81.8298915 1,78.5307665 C1,73.8379419 4.85547939,70 9.56974791,70 L51.7895151,70 C56.5037836,70 60.359263,73.8379419 60.359263,78.5307665 C60.359263,83.2235912 56.5037836,87.0615331 51.7895151,87.0615331 L26.2284428,87.0615331 L22.1098836,93.3015751" id="Stroke-7" stroke-linecap="round" stroke-linejoin="round"></path>
            </g>
        </g>
    </g>
</svg>
