<svg width="20px" height="20px" viewBox="0 0 20 20" version="1.1" xmlns="http://www.w3.org/2000/svg" xmlns:xlink="http://www.w3.org/1999/xlink">
    <defs></defs>
    <g id="Desktop" stroke="none" stroke-width="1" fill="none" fill-rule="evenodd">
        <g id="Dye-Category-Copy-4" transform="translate(-1162.000000, -9.000000)" fill="currentColor">
            <g id="Nav" transform="translate(0.000000, -3.000000)">
                <g id="Group-2" transform="translate(1162.000000, 12.000000)">
                    <path d="M12.80002,12.4386364 C9.84956301,12.4386364 7.44956966,10.0540909 7.44956966,7.12318182 C7.44956966,4.1925 9.84956301,1.80795455 12.80002,1.80795455 C15.7500118,1.80795455 18.1502377,4.1925 18.1502377,7.12318182 C18.1502377,10.0540909 15.7500118,12.4386364 12.80002,12.4386364 M5.59980735,7.12318182 C5.59980735,8.77363636 6.17143367,10.2934091 7.12724498,11.5025 L0.299589479,18.2690909 C-0.103897775,18.6690909 -0.099246625,19.3129545 0.310054566,19.7072727 C0.512612145,19.9027273 0.776564901,20 1.04051766,20 C1.30912157,20 1.57772547,19.8990909 1.78144584,19.6972727 L8.62096177,12.9186364 C9.80026082,13.7531818 11.2425824,14.2465909 12.80002,14.2465909 C16.7702415,14.2465909 20,11.0511364 20,7.12318182 C20,3.19545455 16.7702415,0 12.80002,0 C8.8297984,0 5.59980735,3.19545455 5.59980735,7.12318182 Z" id="search" transform="translate(10.000000, 10.000000) scale(-1, 1) translate(-10.000000, -10.000000) "></path>
                </g>
            </g>
        </g>
    </g>
</svg>
