
<svg width="91px" height="82px" viewBox="0 0 91 82" version="1.1" xmlns="http://www.w3.org/2000/svg" xmlns:xlink="http://www.w3.org/1999/xlink">
    <!-- Generator: Sketch 47.1 (45422) - http://www.bohemiancoding.com/sketch -->
    <desc>Created with Sketch.</desc>
    <defs></defs>
    <g id="Color-Formulas" stroke="none" stroke-width="1" fill="none" fill-rule="evenodd">
        <g id="Color-Formulas-Enter-Details" transform="translate(-895.000000, -357.000000)">
            <g id="Group-4" transform="translate(50.000000, 248.000000)">
                <g id="Group-3">
                    <g id="Group" transform="translate(847.000000, 111.000000)">
                        <polyline id="Stroke-2778" stroke="currentColor" stroke-width="2.5" stroke-linecap="round" stroke-linejoin="round" points="24.8571429 6 21.75 6 0 23.2173913 12.4285714 35.7391304 21.75 26.3478261 21.75 78 43.5 78 65.25 78 65.25 26.3478261 74.5714286 35.7391304 87 23.2173913 65.25 6 62.1428571 6"></polyline>
                        <polygon id="Stroke-2779" stroke="currentColor" stroke-width="2.5" stroke-linecap="round" stroke-linejoin="round" points="31 0 56 0 43.5 12"></polygon>
                        <polygon id="Stroke-2780" stroke="currentColor" stroke-width="2.5" stroke-linecap="round" stroke-linejoin="round" points="49.3333333 19 43 12.6666667 55.6666667 0 62 6.33333333"></polygon>
                        <polygon id="Stroke-2781" stroke="currentColor" stroke-width="2.5" stroke-linecap="round" stroke-linejoin="round" points="37.6666667 19 44 12.6666667 31.3333333 0 25 6.33333333"></polygon>
                        <path d="M43,78 L43,12" id="Stroke-2782" stroke="currentColor" stroke-width="2.5" stroke-linecap="round" stroke-linejoin="round"></path>
                        <path d="M48,28.5 C48,29.3295 48.6705,30 49.5,30 C50.3295,30 51,29.3295 51,28.5 C51,27.672 50.3295,27 49.5,27 C48.6705,27 48,27.672 48,28.5 Z" id="Fill-2783" fill="currentColor"></path>
                        <path d="M48,37.5 C48,38.3295 48.6705,39 49.5,39 C50.3295,39 51,38.3295 51,37.5 C51,36.672 50.3295,36 49.5,36 C48.6705,36 48,36.672 48,37.5 Z" id="Fill-2784" fill="currentColor"></path>
                        <path d="M48,46.5 C48,47.3295 48.6705,48 49.5,48 C50.3295,48 51,47.3295 51,46.5 C51,45.672 50.3295,45 49.5,45 C48.6705,45 48,45.672 48,46.5 Z" id="Fill-2785" fill="currentColor"></path>
                        <path d="M48,56.5 C48,57.3295 48.6705,58 49.5,58 C50.3295,58 51,57.3295 51,56.5 C51,55.672 50.3295,55 49.5,55 C48.6705,55 48,55.672 48,56.5 Z" id="Fill-2786" fill="currentColor"></path>
                    </g>
                </g>
            </g>
        </g>
    </g>
</svg>
