
<svg width="22px" height="22px" viewBox="0 0 22 22" version="1.1" xmlns="http://www.w3.org/2000/svg" xmlns:xlink="http://www.w3.org/1999/xlink">
    <!-- Generator: Sketch 47.1 (45422) - http://www.bohemiancoding.com/sketch -->
    <desc>Created with Sketch.</desc>
    <defs></defs>
    <g id="Desktop-Blog" stroke="none" stroke-width="1" fill="none" fill-rule="evenodd" stroke-linecap="round" stroke-linejoin="round">
        <g id="Blog-Post–-Instruction-Format" transform="translate(-250.000000, -828.000000)" stroke="currentColor">
            <g id="Group" transform="translate(251.000000, 829.000000)">
                <polygon id="Stroke-1379" points="17.0833333 19.5833333 2.91666667 19.5833333 1.25 10.4166667 18.75 10.4166667"></polygon>
                <path d="M7.08333333,1.25 C4.64916667,1.25 2.54083333,2.94083333 2.0125,5.3175 L1.25,8.75 L18.75,8.75 L17.9875,5.3175 C17.4591667,2.94083333 15.3516667,1.25 12.9166667,1.25" id="Stroke-1380"></path>
                <polygon id="Stroke-1381" points="19.5833333 10.4166667 0.416666667 10.4166667 0.416666667 8.75 19.5833333 8.75"></polygon>
                <path d="M12.0833333,12.0833333 L12.0833333,17.0833333" id="Stroke-1382"></path>
                <path d="M15.4166667,12.0833333 L15.4166667,17.0833333" id="Stroke-1383"></path>
                <path d="M7.91666667,12.0833333 L7.91666667,17.0833333" id="Stroke-1384"></path>
                <path d="M4.58333333,12.0833333 L4.58333333,17.0833333" id="Stroke-1385"></path>
                <path d="M12.9166667,1.25 C12.9166667,1.71 12.5441667,2.08333333 12.0833333,2.08333333 L7.91666667,2.08333333 C7.45666667,2.08333333 7.08333333,1.71 7.08333333,1.25 C7.08333333,0.79 7.45666667,0.416666667 7.91666667,0.416666667 L12.0833333,0.416666667 C12.5441667,0.416666667 12.9166667,0.79 12.9166667,1.25 L12.9166667,1.25 Z" id="Stroke-1386"></path>
            </g>
        </g>
    </g>
</svg>
