<?xml version="1.0" encoding="UTF-8"?>
<svg width="20px" height="20px" viewBox="0 0 20 20" version="1.1" xmlns="http://www.w3.org/2000/svg" xmlns:xlink="http://www.w3.org/1999/xlink">
    <!-- Generator: Sketch 47.1 (45422) - http://www.bohemiancoding.com/sketch -->
    <title>Stroke 750</title>
    <desc>Created with Sketch.</desc>
    <defs></defs>
    <g id="Contact-and-FAQ" stroke="none" stroke-width="1" fill="none" fill-rule="evenodd" stroke-linecap="round" stroke-linejoin="round">
        <g id="Contact-Us" transform="translate(-152.000000, -569.000000)" stroke="currentColor">
            <g id="Stroke-750" transform="translate(153.000000, 570.000000)">
                <path d="M6.61532727,5.23906364 C7.35414545,4.50024545 7.35414545,3.30160909 6.61532727,2.56279091 L4.60750909,0.555790909 C3.86869091,-0.183027273 2.67087273,-0.183027273 1.93123636,0.555790909 L0.830781818,1.65706364 C-0.124854545,2.61188182 -0.272127273,4.10179091 0.472418182,5.22842727 C3.67069091,10.0638818 7.93750909,14.3298818 12.7729636,17.5289727 C13.8979636,18.2718818 15.3919636,18.1237909 16.3443273,17.1706091 L17.4456,16.0693364 C18.1844182,15.3305182 18.1844182,14.1327 17.4456,13.3930636 L15.4386,11.3860636 C14.6997818,10.6472455 13.5011455,10.6472455 12.7615091,11.3860636 L12.0930545,12.0553364 C9.89214545,10.2512455 7.74932727,8.10924545 5.94605455,5.90751818 L6.61532727,5.23906364 L6.61532727,5.23906364 Z"></path>
            </g>
        </g>
    </g>
</svg>
