
<svg width="15px" height="20px" viewBox="0 0 15 20" version="1.1" xmlns="http://www.w3.org/2000/svg" xmlns:xlink="http://www.w3.org/1999/xlink">
    <!-- Generator: Sketch 47.1 (45422) - http://www.bohemiancoding.com/sketch -->
    <desc>Created with Sketch.</desc>
    <defs></defs>
    <g id="Desktop-Blog" stroke="none" stroke-width="1" fill="none" fill-rule="evenodd" stroke-linecap="round" stroke-linejoin="round">
        <g id="Blog-Post–-Instruction-Format" transform="translate(-549.000000, -829.000000)" stroke="currentColor">
            <g id="Group" transform="translate(550.000000, 830.000000)">
                <path d="M11.5142857,4.18 C11.5142857,6.9084 9.35108571,9.12 6.68571429,9.12 C4.01811429,9.12 1.85714286,6.9084 1.85714286,4.18 L1.85714286,0.38 L11.5142857,0.38 L11.5142857,4.18 L11.5142857,4.18 Z" id="Stroke-3972"></path>
                <path d="M11.5142857,14.06 C11.5142857,11.3316 9.35108571,9.12 6.68571429,9.12 C4.01811429,9.12 1.85714286,11.3316 1.85714286,14.06 L1.85714286,17.86 L11.5142857,17.86 L11.5142857,14.06 L11.5142857,14.06 Z" id="Stroke-3973"></path>
                <path d="M0.371428571,0.38 L13,0.38" id="Stroke-3974"></path>
                <path d="M0.371428571,17.86 L13,17.86" id="Stroke-3975"></path>
                <polyline id="Stroke-3976" points="1.85714286 14.82 4.45714286 14.82 6.68571429 12.54 8.91428571 14.82 11.5142857 14.82"></polyline>
                <path d="M2.89402286,7.22 L10.4771086,7.22" id="Stroke-3977"></path>
            </g>
        </g>
    </g>
</svg>
