
<svg width="64px" height="53px" viewBox="0 0 64 53" version="1.1" xmlns="http://www.w3.org/2000/svg" xmlns:xlink="http://www.w3.org/1999/xlink">
    <!-- Generator: Sketch 47.1 (45422) - http://www.bohemiancoding.com/sketch -->
    <desc>Created with Sketch.</desc>
    <defs></defs>
    <g id="Mobile" stroke="none" stroke-width="1" fill="none" fill-rule="evenodd" stroke-linecap="round" stroke-linejoin="round">
        <g id="How-to-Dye" transform="translate(-43.000000, -1613.000000)" stroke-width="2" stroke="currentColor">
            <g id="Group-2" transform="translate(22.000000, 1589.000000)">
                <g id="Group-4" transform="translate(22.000000, 25.000000)">
                    <g id="Stroke-2792-+-Stroke-2793">
                        <path d="M21.1287143,0 C17.4817857,0 13.9411429,1.22621739 11.0736429,3.48241304 L0,12.1956522 L8.85714286,21.0652174 L15.5,14.4130435 L15.5,51 L31,51 L46.5,51 L46.5,14.4130435 L53.1428571,21.0652174 L62,12.1956522 L50.9263571,3.48241304 C48.0588571,1.22621739 44.5182143,0 40.8712857,0 L21.1287143,0 L21.1287143,0 Z" id="Stroke-2792"></path>
                        <path d="M41.1946309,0 C41.1946309,4.84912807 37.1889211,8.77868852 32.2483221,8.77868852 C27.3077232,8.77868852 23.3020134,4.84912807 23.3020134,0" id="Stroke-2793"></path>
                    </g>
                </g>
            </g>
        </g>
    </g>
</svg>
