<svg id="880b96ae-08be-416b-a42c-e4a33507693a" data-name="Layer 1" xmlns="http://www.w3.org/2000/svg" viewBox="0 0 100 86.67"><defs><style>.e9ba87d3-133b-4e61-b960-5dd0252f135b{fill:currentColor}</style></defs><title>Vimeo</title><path class="e9ba87d3-133b-4e61-b960-5dd0252f135b" d="M100 20.05q-.72 14.63-20.44 40.06Q59.16 86.67 45 86.67q-8.74 0-14.79-16.17l-8.02-29.66q-4.49-16.17-9.64-16.18-1.12 0-7.85 4.72L0 23.31q7.4-6.52 14.59-13 9.87-8.55 14.82-9 11.67-1.12 14.37 16 2.91 18.47 4 23 3.36 15.32 7.41 15.31 3.14 0 9.43-9.94t6.73-15.13q.9-8.58-6.73-8.58a18.7 18.7 0 0 0-7.4 1.64Q64.63-.66 85.42 0 100.84.47 100 20.05z"/></svg>