
<svg width="20px" height="14px" viewBox="0 0 20 14" version="1.1" xmlns="http://www.w3.org/2000/svg" xmlns:xlink="http://www.w3.org/1999/xlink">
    <!-- Generator: Sketch 47.1 (45422) - http://www.bohemiancoding.com/sketch -->
    <desc>Created with Sketch.</desc>
    <defs></defs>
    <g id="Color-Formulas" stroke="none" stroke-width="1" fill="none" fill-rule="evenodd">
        <g id="Color-Formula-Detail" transform="translate(-67.000000, -557.000000)" stroke="currentColor" stroke-width="1.5">
            <g id="Group-3" transform="translate(50.000000, 391.000000)">
                <g id="Page-1" transform="translate(17.000000, 167.000000)">
                    <path d="M0,0.6 C1.99931034,0.6 1.99931034,2.2 3.99862069,2.2 C5.99655172,2.2 5.99655172,0.6 7.99517241,0.6 C9.99517241,0.6 9.99517241,2.2 11.9951724,2.2 C13.9958621,2.2 13.9958621,0.6 15.9972414,0.6 C17.9986207,0.6 17.9986207,2.2 20,2.2" id="Stroke-1"></path>
                    <path d="M0,5.4 C1.99931034,5.4 1.99931034,7 3.99862069,7 C5.99655172,7 5.99655172,5.4 7.99517241,5.4 C9.99517241,5.4 9.99517241,7 11.9951724,7 C13.9958621,7 13.9958621,5.4 15.9972414,5.4 C17.9986207,5.4 17.9986207,7 20,7" id="Stroke-3"></path>
                    <path d="M0,10.2 C1.99931034,10.2 1.99931034,11.8 3.99862069,11.8 C5.99655172,11.8 5.99655172,10.2 7.99517241,10.2 C9.99517241,10.2 9.99517241,11.8 11.9951724,11.8 C13.9958621,11.8 13.9958621,10.2 15.9972414,10.2 C17.9986207,10.2 17.9986207,11.8 20,11.8" id="Stroke-5"></path>
                </g>
            </g>
        </g>
    </g>
</svg>
