
<svg width="17px" height="17px" viewBox="0 0 17 17" version="1.1" xmlns="http://www.w3.org/2000/svg" xmlns:xlink="http://www.w3.org/1999/xlink">
    <!-- Generator: Sketch 47.1 (45422) - http://www.bohemiancoding.com/sketch -->
    <desc>Created with Sketch.</desc>
    <defs></defs>
    <g id="Nav" stroke="none" stroke-width="1" fill="none" fill-rule="evenodd">
        <g id="Nav-Products" transform="translate(-334.000000, -166.000000)" fill="currentColor">
            <path d="M350.569193,180.488565 C351.143602,181.062971 351.143602,181.994707 350.569193,182.569113 C350.281825,182.85648 349.905533,183 349.528914,183 C349.152295,183 348.776003,182.85648 348.488635,182.569113 L342.5,176.580508 L336.511365,182.569113 C336.223997,182.85648 335.847705,183 335.471086,183 C335.094467,183 334.718175,182.85648 334.430807,182.569113 C333.856398,181.994707 333.856398,181.062971 334.430807,180.488565 L340.419442,174.499959 L334.430807,168.511353 C333.856398,167.936947 333.856398,167.005212 334.430807,166.430805 C335.005543,165.856398 335.936629,165.856398 336.511365,166.430805 L342.5,172.419411 L348.488635,166.430805 C349.063371,165.856398 349.994457,165.856398 350.569193,166.430805 C351.143602,167.005212 351.143602,167.936947 350.569193,168.511353 L344.580558,174.499959 L350.569193,180.488565 Z" id="cross"></path>
        </g>
    </g>
</svg>
