<svg id="de1e1a55-1ce0-471c-968b-9fb527fda5b0" data-name="Layer 1" xmlns="http://www.w3.org/2000/svg" viewBox="0 0 29.9 29.5"><defs><style>.\39 6c6242f-1aa0-436c-b140-aeaf10cc8d88{fill:currentColor}</style></defs><title>LinkedIn</title><path class="96c6242f-1aa0-436c-b140-aeaf10cc8d88" d="M.6 10v19.4h6.3V10H.6zm16.3 19.4h-6.3v-15s-.1-3.7-.1-4.4h6.1l.2 2.7a6.69 6.69 0 0 1 5.6-3.3c4.4 0 7.5 3.1 7.5 8.8v11.3h-6.3V18.8c0-3.1-1.5-4.4-3.4-4.4a3.45 3.45 0 0 0-3.5 3.8v11.2h.2zM3.7 6.9A3.46 3.46 0 1 0 3.8 0 3.48 3.48 0 0 0 0 3.4a3.53 3.53 0 0 0 3.7 3.5z"/></svg>