<svg id="02a447df-e188-4796-968b-687c4eec1974" data-name="5d129cdd-3aff-4798-8c2d-69f644d60208" xmlns="http://www.w3.org/2000/svg" viewBox="0 0 30 24.41"><defs><style>.c13c4501-c8ca-4576-9277-a681872b8ac4{fill:currentColor}</style></defs><path class="c13c4501-c8ca-4576-9277-a681872b8ac4" d="M30 2.9a14 14 0 0 1-3.5 1A6 6 0 0 0 29.2.5 13.16 13.16 0 0 1 25.3 2a6.46 6.46 0 0 0-4.5-2 6.1 6.1 0 0 0-6.1 6v.1a6.6 6.6 0 0 0 .1 1.4A17 17 0 0 1 2.1 1.3a6.11 6.11 0 0 0-.8 3A6.27 6.27 0 0 0 4 9.4a9 9 0 0 1-2.8-.8v.1a6 6 0 0 0 4.9 6 8.75 8.75 0 0 1-1.6.2 4.1 4.1 0 0 1-1.1-.1 6.23 6.23 0 0 0 5.7 4.3A12.58 12.58 0 0 1 1.5 22a7.57 7.57 0 0 1-1.5-.1 17.23 17.23 0 0 0 9.4 2.5c11.3 0 17.5-9.4 17.5-17.5v-.8A13.43 13.43 0 0 0 30 2.9z"/></svg>